<?xml version="1.0" standalone="no"?>
<!DOCTYPE svg PUBLIC "-//W3C//DTD SVG 20010904//EN"
 "http://www.w3.org/TR/2001/REC-SVG-20010904/DTD/svg10.dtd">
<svg version="1.0" xmlns="http://www.w3.org/2000/svg"
 width="512" height="512" viewBox="0 0 1280.000000 1280.000000"
 preserveAspectRatio="xMidYMid meet">

<g transform="translate(0.000000,1280.000000) scale(0.100000,-0.100000)"
fill="#000000" stroke="none">
<path d="M6204 10699 c-52 -12 -121 -71 -145 -123 -22 -49 -24 -124 -5 -170
21 -51 73 -103 121 -122 l45 -17 -1 -636 c-1 -350 -4 -644 -8 -653 -5 -14 -71
46 -310 286 l-304 304 17 47 c54 139 -33 287 -176 302 -67 7 -118 -8 -164 -50
-122 -106 -98 -289 46 -363 46 -23 144 -24 186 -2 l30 17 342 -342 342 -342
-1 -468 c-1 -257 -4 -467 -8 -467 -3 0 -384 378 -846 840 -792 792 -838 840
-823 857 37 41 280 283 284 283 2 0 33 -10 68 -21 57 -19 71 -20 112 -10 107
27 174 110 174 216 0 207 -272 295 -391 127 -45 -62 -54 -115 -34 -190 l18
-64 -179 -179 -179 -179 903 -903 902 -902 -1 -511 c0 -282 -2 -513 -4 -515
-2 -2 -71 -3 -154 -1 l-151 3 0 315 0 314 24 10 c40 15 93 68 115 115 69 146
-55 319 -218 303 -147 -14 -243 -174 -181 -302 27 -56 86 -109 140 -125 l40
-12 0 -349 0 -350 193 -2 192 -3 2 -915 c1 -503 -1 -918 -4 -923 -6 -10 -593
572 -593 588 0 12 250 257 300 294 l32 24 -1450 1451 -1450 1451 24 50 c52
110 9 232 -102 285 -144 70 -314 -36 -314 -197 0 -84 58 -169 135 -199 43 -16
128 -16 180 1 17 5 260 -232 1438 -1408 779 -778 1417 -1418 1417 -1421 0 -4
-62 -67 -137 -141 l-138 -135 -73 73 -73 73 18 34 c26 50 24 153 -3 205 -41
80 -154 129 -241 106 -161 -44 -222 -227 -116 -351 64 -74 151 -98 244 -65
l43 16 431 -431 430 -430 0 -805 0 -805 38 0 37 0 0 582 0 583 507 507 508
508 487 0 488 0 0 648 0 647 779 779 779 779 33 -20 c170 -104 381 68 318 258
-19 55 -55 95 -111 123 -90 45 -176 31 -249 -43 -38 -37 -49 -57 -59 -103 -11
-48 -11 -63 3 -105 l16 -48 -795 -795 -794 -796 2 -622 3 -622 -464 0 -463 0
-490 -490 c-269 -269 -492 -490 -494 -490 -2 0 -4 467 -4 1038 l0 1037 248
248 247 247 231 0 231 0 12 -40 c6 -22 25 -56 42 -74 134 -154 386 -59 383
144 -2 230 -308 299 -410 93 l-26 -53 -252 0 -251 0 -227 -227 -228 -228 0
1856 0 1856 41 12 c86 26 159 143 145 233 -15 92 -71 157 -158 183 -57 17 -56
17 -114 4z m132 -94 c81 -53 84 -178 6 -234 -47 -33 -52 -28 -52 49 l0 70 -35
0 c-34 0 -35 -1 -36 -42 -1 -57 -5 -87 -11 -93 -8 -9 -57 35 -73 65 -20 39
-19 105 2 141 37 63 137 85 199 44z m-1334 -405 c45 -13 93 -66 102 -114 9
-46 -21 -117 -60 -143 -31 -20 -126 -25 -143 -8 -8 8 7 28 46 68 l57 58 -27
26 -27 27 -55 -54 c-46 -45 -57 -52 -65 -40 -35 55 19 156 95 179 40 12 35 12
77 1z m471 -371 c66 -34 97 -102 76 -166 l-11 -35 -73 72 -73 72 -26 -17 c-14
-10 -26 -22 -26 -28 0 -7 32 -44 72 -84 l71 -72 -36 -6 c-93 -18 -177 49 -177
141 0 36 36 97 68 117 31 19 103 22 135 6z m-2517 -934 c57 -37 84 -135 50
-181 -14 -18 -18 -16 -80 46 l-66 64 -27 -26 -27 -27 62 -63 c53 -52 60 -63
46 -71 -9 -5 -32 -7 -51 -4 -139 23 -168 205 -43 270 40 21 97 18 136 -8z
m7101 -485 c18 -10 40 -34 49 -52 34 -66 12 -150 -49 -189 -25 -15 -44 -19
-85 -16 -82 6 -85 18 -22 82 l54 55 -27 27 -27 27 -48 -47 c-26 -26 -51 -47
-55 -47 -12 0 -8 70 7 98 16 30 53 66 76 75 34 12 96 6 127 -13z m-4130 -700
c70 -42 84 -151 28 -210 -16 -17 -32 -30 -37 -30 -4 0 -8 43 -8 95 l0 95 -40
0 -40 0 0 -106 c0 -105 0 -105 -22 -98 -60 18 -98 71 -98 134 0 83 56 140 140
140 27 0 58 -8 77 -20z m1597 -614 c41 -17 74 -58 82 -101 26 -142 -146 -227
-243 -121 -51 56 -45 66 37 66 l70 0 0 35 0 35 -65 0 c-70 0 -78 8 -47 47 19
25 76 52 110 53 12 0 37 -6 56 -14z m-2227 -1222 c58 -28 89 -96 72 -159 -6
-19 -13 -35 -17 -35 -3 0 -37 30 -74 67 l-68 68 -27 -28 -28 -27 68 -68 c37
-37 64 -71 61 -75 -13 -13 -85 -7 -118 8 -62 30 -93 123 -62 183 16 30 53 66
76 75 30 11 83 7 117 -9z"/>
<path d="M6990 10509 c-156 -62 -184 -281 -48 -379 22 -17 47 -30 55 -30 9 0
13 -14 13 -47 l0 -48 -157 0 -158 0 -3 -37 -3 -38 200 0 201 0 0 80 c0 76 1
80 23 80 35 0 98 42 133 88 107 140 3 343 -176 341 -30 0 -66 -5 -80 -10z
m156 -84 c91 -59 82 -198 -16 -247 l-35 -18 -3 90 -3 90 -40 0 -41 0 4 -80 c3
-90 -5 -99 -46 -49 -32 37 -40 69 -32 117 16 100 129 152 212 97z"/>
<path d="M7380 10248 c-163 -99 -130 -339 53 -393 l42 -12 3 -159 2 -159 -415
-415 -415 -415 0 -453 0 -453 38 3 37 3 3 435 2 435 410 410 410 410 0 182 0
183 33 13 c139 59 171 264 56 361 -79 67 -172 76 -259 24z m150 -48 c28 0 87
-56 100 -95 8 -25 8 -45 0 -75 -10 -39 -51 -90 -71 -90 -5 0 -9 34 -9 75 l0
75 -35 0 -35 0 0 -79 c0 -44 -4 -82 -8 -85 -14 -8 -74 27 -95 55 -29 41 -33
98 -8 147 12 23 31 47 43 53 32 17 71 28 86 23 8 -2 22 -4 32 -4z"/>
<path d="M8139 9867 c-76 -40 -130 -147 -113 -225 3 -15 13 -44 21 -65 l17
-38 -95 -95 -94 -94 28 -27 27 -28 98 97 97 96 35 -15 c138 -59 300 50 300
202 0 162 -176 268 -321 192z m180 -75 c46 -34 64 -67 63 -118 -2 -74 -54
-131 -128 -140 -72 -9 -76 8 -14 71 l54 55 -27 27 -27 27 -60 -59 -59 -59 -11
28 c-29 77 16 168 95 189 33 9 88 -1 114 -21z"/>
<path d="M3422 9662 c-97 -35 -146 -105 -146 -209 1 -87 38 -147 117 -188 l57
-30 0 -207 0 -208 510 0 510 0 0 40 0 40 -472 0 -473 0 3 169 3 170 32 10 c48
16 107 69 128 115 79 173 -91 361 -269 298z m122 -76 c101 -42 121 -164 39
-236 -19 -17 -38 -30 -43 -30 -6 0 -10 39 -10 90 l0 90 -40 0 -40 0 0 -90 c0
-49 -3 -90 -6 -90 -18 0 -68 48 -80 76 -31 74 -3 152 66 186 42 22 70 22 114
4z"/>
<path d="M8990 9514 c-46 -20 -98 -71 -116 -114 -22 -51 -19 -133 5 -183 l21
-42 -797 -797 -798 -798 -125 125 -125 124 -29 -25 -29 -26 154 -154 154 -154
826 826 826 826 54 -16 c70 -21 127 -13 187 28 141 98 118 314 -40 380 -47 20
-122 20 -168 0z m180 -102 c49 -49 60 -97 34 -153 -30 -67 -95 -101 -161 -85
l-26 7 56 57 57 58 -27 27 -27 27 -58 -57 c-63 -62 -74 -62 -85 0 -7 45 25
115 64 139 17 11 49 18 82 18 49 0 57 -3 91 -38z"/>
<path d="M9610 8990 c-105 -19 -180 -110 -180 -217 0 -54 26 -118 59 -147 11
-11 21 -24 21 -30 0 -6 -106 -117 -235 -246 l-235 -235 25 -22 c13 -13 28 -23
32 -23 5 0 118 110 253 245 l245 245 53 0 c107 0 190 68 212 173 18 87 -22
182 -94 226 -41 26 -109 39 -156 31z m100 -90 c43 -22 80 -80 80 -126 0 -40
-30 -94 -64 -115 -17 -10 -34 -19 -38 -19 -5 0 -8 45 -8 100 l0 100 -35 0 -34
0 -3 -81 c-2 -66 -6 -84 -21 -93 -15 -9 -23 -6 -46 20 -62 69 -42 171 40 212
55 27 79 27 129 2z"/>
<path d="M4180 8623 c-70 -25 -133 -104 -146 -181 -26 -166 162 -303 312 -225
48 25 101 82 110 118 l6 25 344 0 344 0 0 -585 0 -585 35 0 35 0 0 620 0 620
-371 2 -371 3 -17 43 c-39 99 -114 153 -212 151 -30 0 -61 -3 -69 -6z m140
-86 c26 -13 70 -71 70 -93 0 -11 -19 -14 -75 -14 l-75 0 0 -35 0 -35 70 0 c39
0 70 -3 70 -7 -1 -15 -37 -51 -68 -67 -90 -46 -202 24 -202 127 0 109 107 173
210 124z"/>
<path d="M8622 8591 c-121 -42 -178 -162 -133 -281 l21 -55 -215 -215 c-118
-118 -215 -218 -215 -221 0 -3 70 -77 157 -164 l156 -157 -489 -488 c-268
-268 -490 -492 -491 -497 -2 -5 7 -19 20 -31 l24 -22 516 516 c284 284 517
519 517 523 0 4 -67 74 -150 157 -82 82 -150 154 -150 159 0 6 85 95 188 198
l189 189 38 -16 c77 -32 178 -15 239 42 63 60 84 167 47 248 -24 53 -91 109
-146 123 -56 14 -60 14 -123 -8z m136 -80 c49 -25 72 -67 72 -130 0 -42 -5
-56 -31 -86 -32 -36 -92 -60 -125 -49 -11 3 -25 8 -33 10 -10 3 2 22 39 59
l54 55 -27 27 -27 27 -55 -54 c-30 -29 -58 -50 -62 -46 -5 4 -8 32 -8 61 0 62
23 100 76 127 44 23 81 23 127 -1z"/>
<path d="M2390 8091 c-52 -11 -95 -36 -128 -76 -70 -85 -68 -199 5 -284 107
-125 336 -75 370 82 l6 27 123 0 124 0 0 40 0 40 -123 0 -123 0 -13 35 c-34
96 -141 156 -241 136z m94 -85 c31 -13 76 -59 76 -77 0 -5 -36 -9 -80 -9 l-80
0 0 -40 0 -40 85 0 86 0 -16 -29 c-24 -47 -69 -73 -126 -73 -89 0 -143 59
-136 150 7 99 99 156 191 118z"/>
<path d="M10271 7518 c-44 -22 -97 -83 -107 -125 l-6 -23 -412 0 -411 0 -378
-378 -377 -378 28 -27 28 -27 369 370 370 370 388 0 c360 0 388 -1 393 -17 30
-95 75 -144 154 -167 206 -61 365 182 228 348 -62 75 -177 99 -267 54z m177
-75 c68 -42 82 -155 27 -213 -53 -55 -133 -63 -189 -19 -29 23 -59 73 -49 83
4 3 44 6 90 6 l83 0 0 35 0 35 -85 0 c-57 0 -85 4 -85 11 0 20 69 78 98 81 38
6 83 -2 110 -19z"/>
<path d="M3087 7017 l-79 -80 -31 19 c-41 24 -149 26 -193 2 -198 -107 -141
-397 82 -416 44 -4 63 0 106 22 109 55 153 164 110 276 l-17 44 57 59 56 59
384 -381 383 -381 122 122 121 121 41 -17 c23 -9 66 -16 97 -16 200 0 291 245
140 377 -46 42 -97 57 -166 50 -97 -8 -169 -73 -191 -171 -9 -44 -8 -59 8
-108 l20 -57 -98 -97 -98 -97 -375 374 c-207 206 -381 375 -388 375 -7 1 -48
-34 -91 -79z m-141 -130 c3 -3 -27 -37 -67 -77 l-72 -72 27 -26 26 -27 70 70
c78 77 90 77 90 1 0 -74 -63 -136 -140 -136 -83 0 -140 56 -140 140 0 88 63
144 153 137 26 -2 50 -7 53 -10z m1453 -106 c64 -45 83 -120 47 -189 -23 -44
-93 -77 -144 -67 -20 4 -41 9 -45 12 -5 3 22 36 59 74 l69 69 -28 27 -27 28
-69 -69 -69 -69 -7 45 c-18 121 116 209 214 139z"/>
<path d="M9542 7075 c-60 -26 -94 -57 -118 -109 -29 -63 -30 -126 -3 -186 l20
-44 -276 -276 -275 -275 27 -28 28 -27 276 276 c273 273 278 277 306 266 53
-21 94 -24 145 -11 90 21 168 120 168 211 0 36 -25 102 -51 138 -50 67 -170
98 -247 65z m154 -85 c41 -26 59 -63 59 -122 0 -53 -3 -61 -35 -93 -38 -38
-88 -53 -136 -41 l-27 7 56 57 57 58 -27 27 -27 27 -59 -58 c-65 -64 -77 -62
-77 18 0 114 119 181 216 120z"/>
<path d="M4685 6429 c-84 -43 -134 -140 -119 -227 5 -26 8 -53 9 -59 0 -7 -72
-85 -160 -173 l-160 -160 453 -453 452 -452 27 28 28 27 -425 425 -425 425
131 131 131 131 45 -26 c35 -20 58 -26 106 -26 74 0 98 9 147 52 118 103 91
295 -50 359 -55 26 -140 25 -190 -2z m174 -78 c64 -45 82 -127 45 -191 -20
-32 -85 -70 -122 -70 -28 0 -92 26 -92 37 0 5 29 38 65 73 l65 64 -27 28 -27
29 -60 -63 c-64 -66 -75 -65 -62 5 18 94 138 143 215 88z"/>
<path d="M9572 6285 c-92 -40 -142 -112 -142 -205 0 -94 53 -171 142 -207 l38
-15 0 -124 0 -124 -500 0 -500 0 0 -40 0 -40 535 0 535 0 0 164 0 164 33 11
c86 29 150 118 150 211 0 150 -159 262 -291 205z m138 -80 c62 -32 92 -104 70
-169 -12 -36 -76 -99 -92 -90 -4 3 -8 36 -8 75 l0 69 -35 0 -35 0 0 -70 c0
-82 -12 -90 -64 -37 -44 43 -53 93 -27 152 33 75 119 107 191 70z"/>
<path d="M6775 6252 c-58 -27 -103 -79 -120 -136 -8 -27 -15 -58 -15 -67 0
-35 41 -126 68 -151 31 -29 84 -58 107 -58 13 0 15 -27 15 -209 0 -227 1 -229
56 -215 l24 6 1 207 0 206 52 25 c41 20 59 38 85 80 30 50 33 61 30 121 -4 79
-35 133 -99 176 -54 36 -145 42 -204 15z m148 -71 c71 -27 101 -126 61 -203
-13 -26 -50 -58 -66 -58 -5 0 -8 38 -8 85 l0 85 -40 0 -40 0 0 -85 c0 -94 -6
-102 -55 -63 -92 72 -61 213 55 249 26 8 52 5 93 -10z"/>
<path d="M5830 3780 l0 -720 40 0 40 0 0 720 0 720 -40 0 -40 0 0 -720z"/>
<path d="M6730 3420 l0 -360 40 0 40 0 0 360 0 360 -40 0 -40 0 0 -360z"/>
<path d="M2988 3316 c-39 -17 -88 -66 -104 -103 -21 -49 -17 -122 9 -168 77
-135 271 -129 340 11 l21 44 1183 0 1183 0 0 40 0 40 -1185 0 -1185 0 -13 33
c-40 93 -160 143 -249 103z m157 -35 c28 -16 75 -74 75 -92 0 -5 -60 -10 -132
-11 l-133 -3 -3 -37 -3 -38 135 0 c148 0 151 -2 116 -54 -70 -107 -234 -97
-289 17 -33 68 -26 127 23 182 55 63 139 78 211 36z"/>
<path d="M9249 3311 c-40 -22 -86 -72 -100 -108 l-8 -23 -1043 -2 -1043 -3 -3
-37 -3 -38 1045 0 1045 0 19 -44 c36 -80 127 -124 214 -104 162 36 203 250 65
345 -52 36 -136 42 -188 14z m163 -27 c77 -40 108 -143 66 -224 -58 -112 -219
-120 -288 -14 -35 52 -31 54 100 54 l120 0 0 40 0 40 -120 0 c-66 0 -120 3
-120 8 0 4 9 21 20 39 45 74 140 99 222 57z"/>
<path d="M3580 2445 c0 -338 0 -345 20 -345 20 0 20 7 20 321 0 287 2 321 16
315 15 -6 231 -149 444 -295 58 -40 112 -70 120 -68 9 2 133 83 277 180 143
97 268 180 277 183 15 6 16 -24 16 -315 0 -308 1 -321 19 -321 10 0 21 6 24
14 8 19 8 627 0 655 -3 13 -13 21 -27 21 -12 0 -149 -85 -304 -190 -155 -104
-284 -190 -286 -190 -3 0 -132 86 -288 190 -164 111 -291 190 -305 190 l-23 0
0 -345z"/>
<path d="M5255 2459 c-135 -182 -249 -338 -252 -345 -3 -9 2 -14 16 -14 14 0
42 28 92 95 l71 95 343 0 344 0 68 -94 c52 -73 74 -95 92 -95 15 -1 21 3 18
12 -3 8 -116 163 -252 345 -199 267 -252 332 -270 332 -18 0 -71 -65 -270
-331z m429 76 l157 -210 -155 -3 c-85 -1 -227 -1 -316 0 l-161 3 158 212 c87
116 159 210 159 210 1 -1 72 -96 158 -212z"/>
<path d="M6235 2778 c-3 -7 -4 -162 -3 -343 l3 -330 23 -3 c21 -3 22 -1 22 92
l0 95 338 3 337 3 145 -97 c127 -86 191 -116 190 -90 -1 4 -64 50 -141 101
l-140 95 73 26 c187 66 261 189 183 302 -36 50 -113 100 -205 130 -61 21 -88
22 -443 26 -307 3 -378 1 -382 -10z m783 -37 c261 -68 308 -256 91 -367 -93
-46 -163 -54 -510 -54 l-319 0 0 220 0 220 333 0 c294 0 342 -2 405 -19z"/>
<path d="M7480 2445 l0 -346 23 3 22 3 0 340 0 340 -22 3 -23 3 0 -346z"/>
<path d="M8158 2780 c-180 -29 -357 -122 -415 -220 -60 -98 -42 -203 49 -291
51 -49 178 -112 283 -140 111 -30 362 -33 480 -6 164 38 318 134 366 229 24
48 24 130 0 183 -23 51 -112 132 -183 167 -114 56 -220 79 -378 83 -80 2 -171
0 -202 -5z m422 -50 c161 -47 275 -133 304 -231 15 -48 15 -58 0 -107 -20 -71
-89 -139 -187 -186 -125 -60 -181 -70 -372 -70 -190 0 -248 10 -370 69 -133
64 -198 143 -198 240 0 137 137 247 374 300 98 22 351 14 449 -15z"/>
</g>
</svg>
